<svg version="1.0" xmlns="http://www.w3.org/2000/svg" width="933.333" height="933.333" viewBox="0 0 700 700"><path d="M330.9 30.4c-.2.2-4.2.6-8.9 1-10.5.7-25.8 2.9-41.5 6.1-12.9 2.6-38.3 10.6-53.5 17-21 8.7-51.6 25.9-65.5 36.7-9.6 7.5-14.9 11.7-19 15.1-9.2 7.5-32.9 32.1-41.8 43.2-7.9 9.8-24.7 33.7-24.7 35 0 .3-1 2.2-2.3 4.3-17.2 27.4-33.5 72.1-39.1 107.2-.3 1.9-.8 4.6-1 6-3.7 19.5-4.2 67.6-1.1 89 4.9 32.9 14.6 67.4 25.3 89.5 1.1 2.2 3 6.2 4.2 9 1.9 4.1 5.9 11.6 13.5 25 .6 1.1 2.5 4.2 4.3 7 26.3 41 62.7 76.6 103.7 101.7 19.5 11.9 43.8 23.2 65 30.3 10.9 3.6 34.6 9.8 42.1 10.9 2.1.4 6.4 1.1 9.4 1.6 17 2.8 25.1 3.4 49 3.5 21.8 0 40.1-1.1 48.6-3 1.2-.3 3.9-.7 6-1 2.1-.3 5.9-1 8.4-1.6 2.5-.5 5.4-1.1 6.5-1.3 6.5-1.3 16.3-3.9 24.5-6.5 51.1-15.8 94.9-42 131.5-78.6 15.9-15.8 20.2-20.7 31.2-35.3 20.4-27.1 36.8-58.1 47.7-90.4 5.1-15.3 10.7-37.9 12.1-49.7.3-2.4.7-4.7 1-5 .2-.4.6-3.5 1-7 .4-3.4.9-7.2 1.1-8.4 1-4.1 1.2-49.2.3-58.2-2.5-26.1-8.1-54-14.5-72.5-5.1-14.6-6.9-19.2-10.4-27.5-15.3-35.8-38.8-70.4-67-98.5-19.1-19.1-30.7-28.7-51.3-42.4-32-21.2-71.2-37.8-106.7-45-1.4-.3-4.5-1-7-1.5-4.7-1.1-5.7-1.2-23.5-3.7-9.6-1.4-56.6-3-57.6-2z"/></svg>